<svg xmlns="http://www.w3.org/2000/svg" width="23" height="23" viewBox="0 0 23 23">
  <g id="Group_2" data-name="Group 2" transform="translate(-952 -696)">
    <g id="Ellipse_18_copy_11" data-name="Ellipse 18 copy 11" transform="translate(952 696)" fill="rgba(114,114,116,0)" stroke="#727274" stroke-linejoin="round" stroke-width="1">
      <circle cx="11.5" cy="11.5" r="11.5" stroke="none"/>
      <circle cx="11.5" cy="11.5" r="11" fill="none"/>
    </g>
    <path id="Forma_1" data-name="Forma 1" d="M958.5,714a1.5,1.5,0,0,1-1.5-1.5V703a1.5,1.5,0,0,1,1.5-1.5H960v2a.5.5,0,0,0,1,0v-2h6v2a.5.5,0,0,0,1,0v-2h1.5A1.5,1.5,0,0,1,971,703v9.5a1.5,1.5,0,0,1-1.5,1.5Zm-.5-1.5a.5.5,0,0,0,.5.5h11a.5.5,0,0,0,.5-.5V706H958Zm9-.5a.5.5,0,0,1,0-1h1a.5.5,0,1,1,0,1Zm-3.5,0a.5.5,0,0,1,0-1h1a.5.5,0,0,1,0,1Zm-3.5,0a.5.5,0,0,1,0-1h1a.5.5,0,0,1,0,1Zm7-2a.5.5,0,0,1,0-1h1a.5.5,0,1,1,0,1Zm-3.5,0a.5.5,0,0,1,0-1h1a.5.5,0,0,1,0,1Zm-3.5,0a.5.5,0,0,1,0-1h1a.5.5,0,0,1,0,1Zm7-2a.5.5,0,0,1,0-1h1a.5.5,0,1,1,0,1Zm-3.5,0a.5.5,0,0,1,0-1h1a.5.5,0,0,1,0,1Zm-3.5,0a.5.5,0,0,1,0-1h1a.5.5,0,0,1,0,1Zm7-6.5v-1a.5.5,0,0,1,1,0v1Zm-7,0v-1a.5.5,0,0,1,1,0v1Z" fill="#727274"/>
  </g>
</svg>
