<svg xmlns="http://www.w3.org/2000/svg" width="23" height="23" viewBox="0 0 23 23">
  <g id="Group_1" data-name="Group 1" transform="translate(-920 -521)">
    <g id="Ellipse_18_copy_9" data-name="Ellipse 18 copy 9" transform="translate(920 521)" fill="rgba(114,114,116,0)" stroke="#727274" stroke-linejoin="round" stroke-width="1">
      <circle cx="11.5" cy="11.5" r="11.5" stroke="none"/>
      <circle cx="11.5" cy="11.5" r="11" fill="none"/>
    </g>
    <path id="Trophy_copy_2" data-name="Trophy copy 2" d="M939,528.014A1.965,1.965,0,0,0,936.851,526a3.36,3.36,0,0,0-1.334.313h-8.034a3.36,3.36,0,0,0-1.334-.312A1.965,1.965,0,0,0,924,528.014c0,1.464,1.274,2.743,2.3,3.771.629.632,1.28,1.285,1.244,1.637,0,.03-.013.123-.19.241a.312.312,0,0,0,.345.521.96.96,0,0,0,.462-.658,11.018,11.018,0,0,0,1.773,3.757.307.307,0,0,0,.062.094c.332.345.488.627.451.814-.056.286-.611.531-1.1.747-.747.33-1.594.7-1.594,1.523,0,.263,0,.535,3.76.538,3.737,0,3.737-.274,3.737-.538,0-.818-.845-1.2-1.591-1.529-.491-.219-1.048-.468-1.1-.757-.037-.189.119-.471.451-.816a.314.314,0,0,0,.062-.094,11.083,11.083,0,0,0,1.772-3.752.955.955,0,0,0,.464.67.312.312,0,1,0,.345-.521c-.178-.118-.187-.21-.19-.241-.036-.352.615-1.005,1.245-1.637C937.726,530.757,939,529.478,939,528.014Zm-12.259,3.33c-.943-.946-2.116-2.124-2.116-3.33a1.373,1.373,0,0,1,1.524-1.389,2.824,2.824,0,0,1,.977.21,25.794,25.794,0,0,0,.8,5.85A8.836,8.836,0,0,0,926.741,531.344Zm6.661,8.16a2.7,2.7,0,0,1,1.157.734,34.166,34.166,0,0,1-6.118,0,2.685,2.685,0,0,1,1.157-.727c.66-.291,1.342-.593,1.461-1.2a.9.9,0,0,0,.017-.186,1.442,1.442,0,0,0,.847-.006.935.935,0,0,0,.017.176C932.058,538.9,932.742,539.209,933.4,539.5Zm-1.914-1.942c-1.568,0-3.658-5.206-3.736-10.625h7.5C935.169,532.357,933.066,537.563,931.488,537.563Zm3.578-4.866a25.67,25.67,0,0,0,.808-5.861,2.821,2.821,0,0,1,.977-.21,1.373,1.373,0,0,1,1.524,1.389c0,1.205-1.173,2.383-2.116,3.33A8.678,8.678,0,0,0,935.066,532.7Zm-3.735-3.561h.755v3.921h-.954v-2.5h-.941v-.643A1.021,1.021,0,0,0,931.331,529.135Z" fill="#727274"/>
  </g>
</svg>
