<svg xmlns="http://www.w3.org/2000/svg" width="18.999" height="17.009" viewBox="0 0 18.999 17.009">
  <g id="Group_3" data-name="Group 3" transform="translate(-47.001 -254.991)">
    <path id="Shape_1" data-name="Shape 1" d="M57.79,254.991a8.369,8.369,0,0,0-8.206,8.5v.028l-1.625-2.535a.513.513,0,0,0-.725-.153.555.555,0,0,0-.147.751l2.358,3.676a.522.522,0,0,0,.372.237.363.363,0,0,0,.066,0,.5.5,0,0,0,.349-.141l3.277-3.057a.559.559,0,0,0,.039-.767.513.513,0,0,0-.741-.04l-2.176,2.037v-.04a7.165,7.165,0,1,1,7.162,7.42,6.978,6.978,0,0,1-5.061-2.173.509.509,0,0,0-.741,0,.554.554,0,0,0,0,.767,8.008,8.008,0,0,0,5.8,2.491,8.51,8.51,0,0,0,0-17.009Z" transform="translate(0)" fill="#fff"/>
    <path id="Shape_1-2" data-name="Shape 1" d="M61.049,261.873h-.021v-.95a2.993,2.993,0,0,0-2.955-3.028,2.937,2.937,0,0,0-2.859,2.951v.091a.247.247,0,0,0,.244.248h.781a.247.247,0,0,0,.244-.248v-.028a1.694,1.694,0,0,1,1.531-1.722,1.648,1.648,0,0,1,1.741,1.656v1.027H57.347v0H55.121a.774.774,0,0,0-.746.775v4.3a.774.774,0,0,0,.767.779h5.9a.774.774,0,0,0,.767-.779v-4.293A.769.769,0,0,0,61.049,261.873Zm-2.5,3.119a.168.168,0,0,0-.076.157c0,.314,0,.629,0,.947h0a.332.332,0,0,1-.176.318.364.364,0,0,1-.543-.318v-.95a.166.166,0,0,0-.069-.15.728.728,0,1,1,1.149-.6A.668.668,0,0,1,58.551,264.992Z" transform="translate(0)" fill="#fff"/>
  </g>
</svg>
