<svg xmlns="http://www.w3.org/2000/svg" width="14.019" height="13" viewBox="0 0 14.019 13">
  <g id="Group_1" data-name="Group 1" transform="translate(-1029.996 -150)">
    <path id="Forma_1" data-name="Forma 1" d="M1031.43,159.995l-.434,1.584a.507.507,0,0,1-.491.369.513.513,0,0,1-.132-.017.5.5,0,0,1-.36-.61l.771-2.817a.5.5,0,0,1,.238-.3.519.519,0,0,1,.386-.049l2.876.755a.5.5,0,0,1,.36.611.511.511,0,0,1-.624.352l-1.769-.464a5.625,5.625,0,0,0,4.76,2.6c.062,0,.124,0,.186,0a5.611,5.611,0,0,0,3.9-1.732,5.384,5.384,0,0,0,1.508-3.928.509.509,0,0,1,1.017-.032,6.361,6.361,0,0,1-1.782,4.641,6.629,6.629,0,0,1-4.611,2.048c-.074,0-.148,0-.22,0A6.647,6.647,0,0,1,1031.43,159.995Zm-1.113-3.516a6.555,6.555,0,0,1,6.615-6.478,6.639,6.639,0,0,1,5.707,3.2l.37-1.69a.509.509,0,0,1,.6-.382.5.5,0,0,1,.391.591l-.624,2.852a.5.5,0,0,1-.221.314.521.521,0,0,1-.234.078.556.556,0,0,1-.149-.009l-2.912-.612a.5.5,0,0,1-.391-.591.509.509,0,0,1,.6-.383l1.7.356a5.619,5.619,0,0,0-4.841-2.729,5.547,5.547,0,0,0-5.6,5.482.509.509,0,0,1-1.017,0Z" fill="#7d7d84"/>
    <path id="Forma_1_copy_2" data-name="Forma 1 copy 2" d="M1035.071,159.184a5.338,5.338,0,0,1-.409-.363,3.409,3.409,0,0,1-.409-.472,3.651,3.651,0,0,1-.24-.364.193.193,0,0,1-.009-.172,2.222,2.222,0,0,1,.205-.381,2.505,2.505,0,0,1,1.752-1.125.329.329,0,0,1,.257.063,2.137,2.137,0,0,0,2.562,0,.372.372,0,0,1,.258-.063,2.527,2.527,0,0,1,1.752,1.125,1.933,1.933,0,0,1,.2.381.156.156,0,0,1-.026.172,3.387,3.387,0,0,1-.24.364,4.324,4.324,0,0,1-.409.472,3.936,3.936,0,0,1-.41.363,3.994,3.994,0,0,1-4.839,0Zm.389-5.1a2.04,2.04,0,1,1,2.04,2.08A2.061,2.061,0,0,1,1035.46,154.08Z" fill="#7d7d84"/>
  </g>
</svg>
