<svg xmlns="http://www.w3.org/2000/svg" width="15.999" height="14" viewBox="0 0 15.999 14">
  <g id="Group_2" data-name="Group 2" transform="translate(-1029.001 -180)">
    <path id="Shape_1" data-name="Shape 1" d="M1038.087,180a6.963,6.963,0,0,0-6.91,7v.023l-1.368-2.086a.438.438,0,0,0-.611-.126.45.45,0,0,0-.124.618l1.985,3.026a.441.441,0,0,0,.313.2.313.313,0,0,0,.056,0,.429.429,0,0,0,.294-.116l2.759-2.516a.452.452,0,0,0,.033-.632.439.439,0,0,0-.624-.033l-1.832,1.676V187a6.03,6.03,0,1,1,6.031,6.107,5.942,5.942,0,0,1-4.261-1.789.436.436,0,0,0-.624,0,.449.449,0,0,0,0,.632,6.82,6.82,0,0,0,4.885,2.05,7,7,0,0,0,0-14Z" fill="#7d7d84"/>
    <path id="Shape_1-2" data-name="Shape 1" d="M1041.281,185.643h-.019v-.87a2.778,2.778,0,0,0-2.781-2.773,2.725,2.725,0,0,0-2.691,2.7v.083a.229.229,0,0,0,.23.227h.735a.229.229,0,0,0,.23-.227v-.026a1.567,1.567,0,0,1,1.441-1.577,1.533,1.533,0,0,1,1.638,1.516v.94H1037.8v0H1035.7a.718.718,0,0,0-.7.71v3.934a.718.718,0,0,0,.722.713h5.556a.718.718,0,0,0,.722-.713v-3.931A.714.714,0,0,0,1041.281,185.643Zm-2.351,2.856a.153.153,0,0,0-.071.144c0,.288,0,.576,0,.867h0a.3.3,0,0,1-.165.291.342.342,0,0,1-.512-.291v-.87a.15.15,0,0,0-.065-.137.653.653,0,0,1-.22-.812.681.681,0,0,1,.738-.387.672.672,0,0,1,.563.652A.606.606,0,0,1,1038.931,188.5Z" fill="#7d7d84"/>
  </g>
</svg>
