<svg xmlns="http://www.w3.org/2000/svg" width="19.025" height="16.974" viewBox="0 0 19.025 16.974">
  <g id="Group_2" data-name="Group 2" transform="translate(-47.994 -222.012)">
    <path id="Forma_1_copy_3" data-name="Forma 1 copy 3" d="M1.946,13.051l-.589,2.067a.685.685,0,0,1-.666.482.721.721,0,0,1-.18-.023.648.648,0,0,1-.488-.8L1.071,11.1a.659.659,0,0,1,.322-.4.724.724,0,0,1,.523-.065l3.9.986a.647.647,0,0,1,.488.8.7.7,0,0,1-.845.461l-2.4-.607a7.708,7.708,0,0,0,6.46,3.393c.085,0,.168,0,.254,0a7.758,7.758,0,0,0,5.295-2.263,6.888,6.888,0,0,0,2.046-5.128.692.692,0,0,1,1.38-.043A8.135,8.135,0,0,1,16.079,14.3a9.167,9.167,0,0,1-6.257,2.674c-.1,0-.2,0-.3,0A9.117,9.117,0,0,1,1.946,13.051ZM.435,8.459A8.739,8.739,0,0,1,9.412,0a9.092,9.092,0,0,1,7.745,4.18l.5-2.208a.691.691,0,0,1,.82-.5.652.652,0,0,1,.531.773L18.163,5.97a.65.65,0,0,1-.3.41.709.709,0,0,1-.317.1.727.727,0,0,1-.2-.012l-3.953-.8a.652.652,0,0,1-.53-.772.691.691,0,0,1,.82-.5l2.3.465A7.692,7.692,0,0,0,9.412,1.3a7.4,7.4,0,0,0-7.6,7.158.672.672,0,0,1-.691.651A.671.671,0,0,1,.435,8.459Z" transform="translate(47.994 222.012)" fill="#fff"/>
    <path id="Forma_1_copy_3-2" data-name="Forma 1 copy 3" d="M1.151,7.846a5.756,5.756,0,0,1-.435-.4,3.684,3.684,0,0,1-.435-.515,3.9,3.9,0,0,1-.256-.4A.219.219,0,0,1,.017,6.35a2.506,2.506,0,0,1,.217-.416A2.663,2.663,0,0,1,2.1,4.706a.343.343,0,0,1,.275.069,2.223,2.223,0,0,0,2.722,0,.385.385,0,0,1,.274-.069A2.681,2.681,0,0,1,7.229,5.935a2.17,2.17,0,0,1,.217.416.175.175,0,0,1-.028.188,3.5,3.5,0,0,1-.256.4,4.51,4.51,0,0,1-.435.515,4.218,4.218,0,0,1-.435.4,4.151,4.151,0,0,1-5.142,0ZM1.571,2.27A2.217,2.217,0,0,1,3.731,0a2.217,2.217,0,0,1,2.16,2.27,2.217,2.217,0,0,1-2.16,2.27A2.217,2.217,0,0,1,1.571,2.27Z" transform="translate(53.802 226.13)" fill="#fff"/>
  </g>
</svg>
